<svg width="100" height="100" viewBox="0 0 100 100" fill="none" xmlns="http://www.w3.org/2000/svg">
<rect width="100" height="100" rx="15" fill="#64C964"/>
<path d="M31.7969 78.4531C20.7344 78.4531 17.7812 76.0625 17.7812 67.25C17.7812 66.2656 17.8281 64.3906 17.875 62H6.67188V56.7969H18.0625L18.25 50.3281H7.5625V45.125H18.4375L18.6719 39.875L24.7656 40.0156L24.5312 45.125H41.6875V50.3281H24.3438L24.1094 56.7969H42.5781V62H23.9688L23.875 66.2188C23.875 71.9844 25 72.9688 31.7969 72.9688C38.4062 72.9688 40.5156 71.8906 40.5156 68.5625C40.5156 67.5312 40.1875 65.7031 39.9062 64.7188L45.8594 63.4062C46.4219 65.7969 46.6562 67.2031 46.6562 68.7031C46.6562 75.5 42.0156 78.4531 31.7969 78.4531ZM70.1875 78.6406C59.6875 78.6406 55.1406 73.9531 55.1406 63.2656V41.5625H61.4688V63.2656C61.4688 70.0156 64 72.7812 70.1875 72.7812C77.125 72.7812 81.1562 69.3125 85.3281 59.6094L90.9062 62C85.9844 74.1875 80.4531 78.6406 70.1875 78.6406ZM77.2656 53.0938C75.8594 49.9531 74.3125 47.2344 72.25 44.2812L76.2812 42.125C78.3438 45.0781 79.8906 47.7969 81.3438 51.0312L77.2656 53.0938ZM84.4844 50.5156C83.125 47.375 81.625 44.6562 79.6562 41.7031L83.6406 39.6406C85.6094 42.6875 87.1562 45.4062 88.5156 48.6875L84.4844 50.5156Z" fill="white"/>
<line x1="3.11803" y1="4.76393" x2="51.118" y2="28.7639" stroke="white" stroke-width="5"/>
<line y1="-2.5" x2="53.6656" y2="-2.5" transform="matrix(-0.894427 0.447214 0.447214 0.894427 98 7)" stroke="white" stroke-width="5"/>
</svg>
